<svg width="544" height="223" viewBox="0 0 544 223" fill="none" xmlns="http://www.w3.org/2000/svg">
<path fill-rule="evenodd" clip-rule="evenodd" d="M0 33.8249C0 15.144 13.2688 0 29.6368 0L56.9937 0L124.674 0V48.1356C124.674 57.4761 118.039 65.0483 109.856 65.0483H71.0105C63.3133 65.1876 57.0987 72.2924 56.9937 81.0818V186.363C56.9937 195.704 50.3594 203.276 42.1752 203.276H0L0 65.0483L0 33.8249Z" fill="#090f3f"/>
<path d="M144.723 98H153.423V72.5C153.423 64.8 155.573 58.75 159.873 54.35C164.273 49.85 170.773 47.6 179.373 47.6C184.473 47.6 188.523 48.5 191.523 50.3C194.623 52 196.973 53.6 198.573 55.1L189.423 71.75C187.623 69.25 185.273 68 182.373 68C177.573 68 175.173 71.4 175.173 78.2V98H191.823V116.75H175.173V167H153.423V116.75H144.723V98ZM209.936 119.15L202.286 104C206.286 102.1 210.986 100.3 216.386 98.6C221.886 96.9 227.886 96.05 234.386 96.05C240.486 96.05 245.936 96.95 250.736 98.75C255.536 100.45 259.336 102.95 262.136 106.25C264.936 109.55 266.336 113.6 266.336 118.4V167H244.586V157.55C242.486 161.15 239.336 163.9 235.136 165.8C231.036 167.6 226.586 168.5 221.786 168.5C217.386 168.5 213.286 167.7 209.486 166.1C205.786 164.4 202.786 161.9 200.486 158.6C198.286 155.3 197.186 151.3 197.186 146.6C197.186 140 199.486 134.8 204.086 131C208.786 127.1 215.486 125.15 224.186 125.15C228.386 125.15 232.236 125.6 235.736 126.5C239.236 127.3 242.186 128.3 244.586 129.5V123.5C244.586 116.7 240.236 113.3 231.536 113.3C228.536 113.3 225.536 113.65 222.536 114.35C219.536 115.05 216.886 115.9 214.586 116.9C212.386 117.8 210.836 118.55 209.936 119.15ZM220.136 145.4C220.136 148.1 221.036 150.2 222.836 151.7C224.736 153.1 227.086 153.8 229.886 153.8C233.586 153.8 236.886 152.7 239.786 150.5C242.686 148.2 244.286 144.8 244.586 140.3C240.486 138.5 236.036 137.6 231.236 137.6C227.236 137.6 224.386 138.3 222.686 139.7C220.986 141 220.136 142.9 220.136 145.4ZM362.195 132.5C362.195 140.2 360.595 146.75 357.395 152.15C354.295 157.55 350.245 161.65 345.245 164.45C340.245 167.15 334.945 168.5 329.345 168.5C319.145 168.5 311.295 164.35 305.795 156.05V167H283.145V50H305.795V108.95C311.295 100.65 319.145 96.5 329.345 96.5C334.945 96.5 340.245 97.9 345.245 100.7C350.245 103.4 354.295 107.45 357.395 112.85C360.595 118.15 362.195 124.7 362.195 132.5ZM338.345 132.5C338.345 127.1 336.695 122.8 333.395 119.6C330.195 116.4 326.345 114.8 321.845 114.8C319.345 114.8 316.845 115.5 314.345 116.9C311.845 118.3 309.795 120.3 308.195 122.9C306.595 125.5 305.795 128.7 305.795 132.5C305.795 136.2 306.595 139.4 308.195 142.1C309.795 144.7 311.845 146.7 314.345 148.1C316.845 149.5 319.345 150.2 321.845 150.2C326.345 150.2 330.195 148.6 333.395 145.4C336.695 142.2 338.345 137.9 338.345 132.5ZM418.027 121.55C416.827 120.35 415.527 119.4 414.127 118.7C412.827 118 411.177 117.65 409.177 117.65C405.877 117.65 403.177 118.95 401.077 121.55C399.077 124.15 398.077 127.95 398.077 132.95V167H375.727V98H398.077V106.7C400.277 103.5 402.877 101 405.877 99.2C408.977 97.3 412.177 96.35 415.477 96.35C417.977 96.35 420.377 96.9 422.677 98C424.977 99 426.727 100.35 427.927 102.05L418.027 121.55ZM436.047 72.2C436.047 68.6 437.297 65.65 439.797 63.35C442.397 61.05 445.547 59.9 449.247 59.9C452.947 59.9 456.047 61.05 458.547 63.35C461.147 65.65 462.447 68.6 462.447 72.2C462.447 75.8 461.147 78.75 458.547 81.05C456.047 83.25 452.947 84.35 449.247 84.35C445.547 84.35 442.397 83.25 439.797 81.05C437.297 78.75 436.047 75.8 436.047 72.2ZM438.147 98H460.197V167H438.147V98ZM497.902 132.5C497.902 138 499.702 142.35 503.302 145.55C506.902 148.75 511.252 150.35 516.352 150.35C520.452 150.35 524.352 149.5 528.052 147.8C531.752 146 534.602 143.45 536.602 140.15V162.2C534.202 164.1 531.202 165.65 527.602 166.85C524.002 167.95 519.602 168.5 514.402 168.5C506.702 168.5 499.852 167 493.852 164C487.852 161 483.102 156.8 479.602 151.4C476.202 146 474.502 139.7 474.502 132.5C474.502 125.2 476.202 118.9 479.602 113.6C483.102 108.2 487.852 104 493.852 101C499.852 98 506.702 96.5 514.402 96.5C519.602 96.5 524.002 97.1 527.602 98.3C531.202 99.4 534.202 100.8 536.602 102.5V124.7C534.602 121.4 531.652 118.9 527.752 117.2C523.852 115.5 520.052 114.65 516.352 114.65C512.952 114.65 509.852 115.45 507.052 117.05C504.252 118.55 502.002 120.65 500.302 123.35C498.702 126.05 497.902 129.1 497.902 132.5Z" fill="#090f3f"/>
</svg>











