<svg width="553" height="223" viewBox="0 0 553 223" fill="none" xmlns="http://www.w3.org/2000/svg">
<path fill-rule="evenodd" clip-rule="evenodd" d="M0 34.4206C0 15.7397 13.2688 0.595703 29.6368 0.595703H56.9937H124.674V48.7313C124.674 58.0718 118.039 65.644 109.856 65.644H71.0105C63.3133 65.7833 57.0987 72.8881 56.9937 81.6775V186.959C56.9937 196.3 50.3594 203.871 42.1752 203.871H0V65.644V34.4206Z" fill="#fff"/>
<path d="M153.723 98H162.423V72.5C162.423 64.8 164.573 58.75 168.873 54.35C173.273 49.85 179.773 47.6 188.373 47.6C193.473 47.6 197.523 48.5 200.523 50.3C203.623 52 205.973 53.6 207.573 55.1L198.423 71.75C196.623 69.25 194.273 68 191.373 68C186.573 68 184.173 71.4 184.173 78.2V98H200.823V116.75H184.173V167H162.423V116.75H153.723V98ZM218.936 119.15L211.286 104C215.286 102.1 219.986 100.3 225.386 98.6C230.886 96.9 236.886 96.05 243.386 96.05C249.486 96.05 254.936 96.95 259.736 98.75C264.536 100.45 268.336 102.95 271.136 106.25C273.936 109.55 275.336 113.6 275.336 118.4V167H253.586V157.55C251.486 161.15 248.336 163.9 244.136 165.8C240.036 167.6 235.586 168.5 230.786 168.5C226.386 168.5 222.286 167.7 218.486 166.1C214.786 164.4 211.786 161.9 209.486 158.6C207.286 155.3 206.186 151.3 206.186 146.6C206.186 140 208.486 134.8 213.086 131C217.786 127.1 224.486 125.15 233.186 125.15C237.386 125.15 241.236 125.6 244.736 126.5C248.236 127.3 251.186 128.3 253.586 129.5V123.5C253.586 116.7 249.236 113.3 240.536 113.3C237.536 113.3 234.536 113.65 231.536 114.35C228.536 115.05 225.886 115.9 223.586 116.9C221.386 117.8 219.836 118.55 218.936 119.15ZM229.136 145.4C229.136 148.1 230.036 150.2 231.836 151.7C233.736 153.1 236.086 153.8 238.886 153.8C242.586 153.8 245.886 152.7 248.786 150.5C251.686 148.2 253.286 144.8 253.586 140.3C249.486 138.5 245.036 137.6 240.236 137.6C236.236 137.6 233.386 138.3 231.686 139.7C229.986 141 229.136 142.9 229.136 145.4ZM371.195 132.5C371.195 140.2 369.595 146.75 366.395 152.15C363.295 157.55 359.245 161.65 354.245 164.45C349.245 167.15 343.945 168.5 338.345 168.5C328.145 168.5 320.295 164.35 314.795 156.05V167H292.145V50H314.795V108.95C320.295 100.65 328.145 96.5 338.345 96.5C343.945 96.5 349.245 97.9 354.245 100.7C359.245 103.4 363.295 107.45 366.395 112.85C369.595 118.15 371.195 124.7 371.195 132.5ZM347.345 132.5C347.345 127.1 345.695 122.8 342.395 119.6C339.195 116.4 335.345 114.8 330.845 114.8C328.345 114.8 325.845 115.5 323.345 116.9C320.845 118.3 318.795 120.3 317.195 122.9C315.595 125.5 314.795 128.7 314.795 132.5C314.795 136.2 315.595 139.4 317.195 142.1C318.795 144.7 320.845 146.7 323.345 148.1C325.845 149.5 328.345 150.2 330.845 150.2C335.345 150.2 339.195 148.6 342.395 145.4C345.695 142.2 347.345 137.9 347.345 132.5ZM427.027 121.55C425.827 120.35 424.527 119.4 423.127 118.7C421.827 118 420.177 117.65 418.177 117.65C414.877 117.65 412.177 118.95 410.077 121.55C408.077 124.15 407.077 127.95 407.077 132.95V167H384.727V98H407.077V106.7C409.277 103.5 411.877 101 414.877 99.2C417.977 97.3 421.177 96.35 424.477 96.35C426.977 96.35 429.377 96.9 431.677 98C433.977 99 435.727 100.35 436.927 102.05L427.027 121.55ZM445.047 72.2C445.047 68.6 446.297 65.65 448.797 63.35C451.397 61.05 454.547 59.9 458.247 59.9C461.947 59.9 465.047 61.05 467.547 63.35C470.147 65.65 471.447 68.6 471.447 72.2C471.447 75.8 470.147 78.75 467.547 81.05C465.047 83.25 461.947 84.35 458.247 84.35C454.547 84.35 451.397 83.25 448.797 81.05C446.297 78.75 445.047 75.8 445.047 72.2ZM447.147 98H469.197V167H447.147V98ZM506.902 132.5C506.902 138 508.702 142.35 512.302 145.55C515.902 148.75 520.252 150.35 525.352 150.35C529.452 150.35 533.352 149.5 537.052 147.8C540.752 146 543.602 143.45 545.602 140.15V162.2C543.202 164.1 540.202 165.65 536.602 166.85C533.002 167.95 528.602 168.5 523.402 168.5C515.702 168.5 508.852 167 502.852 164C496.852 161 492.102 156.8 488.602 151.4C485.202 146 483.502 139.7 483.502 132.5C483.502 125.2 485.202 118.9 488.602 113.6C492.102 108.2 496.852 104 502.852 101C508.852 98 515.702 96.5 523.402 96.5C528.602 96.5 533.002 97.1 536.602 98.3C540.202 99.4 543.202 100.8 545.602 102.5V124.7C543.602 121.4 540.652 118.9 536.752 117.2C532.852 115.5 529.052 114.65 525.352 114.65C521.952 114.65 518.852 115.45 516.052 117.05C513.252 118.55 511.002 120.65 509.302 123.35C507.702 126.05 506.902 129.1 506.902 132.5Z" fill="#fff"/>
</svg>

