 <svg width="100%" height="100%" viewBox="0 0 1640 476" fill="none"
                                xmlns="http://www.w3.org/2000/svg">
                                <path
                                    d="M408.12 217.561V175.001H563.24V217.561H509.48V371.001H461.88V217.561H408.12ZM664.193 292.601C664.193 284.948 662.793 279.161 659.993 275.241C657.193 271.134 652.34 269.081 645.433 269.081C638.713 269.081 633.3 271.134 629.193 275.241C625.086 279.161 623.033 284.948 623.033 292.601V371.001H580.473V152.601H623.033V259.841C626.58 252.934 631.62 247.521 638.153 243.601C644.686 239.494 652.713 237.441 662.233 237.441C678.286 237.441 689.673 241.641 696.393 250.041C703.113 258.441 706.473 270.574 706.473 286.441V371.001H664.193V292.601ZM805.414 373.801C790.294 373.801 777.227 371.094 766.214 365.681C755.387 360.081 746.987 352.241 741.014 342.161C735.04 332.081 732.054 320.228 732.054 306.601C732.054 285.694 738.494 269.268 751.374 257.321C764.254 245.374 781.987 239.401 804.574 239.401C826.787 239.401 843.867 245.094 855.814 256.481C867.947 267.868 874.014 283.921 874.014 304.641C874.014 306.694 874.014 308.654 874.014 310.521C874.014 312.388 873.92 314.068 873.734 315.561H775.454C776.574 324.334 779.654 331.148 784.694 336.001C789.734 340.854 796.36 343.281 804.574 343.281C819.507 343.281 830.147 337.681 836.494 326.481L874.574 335.721C860.947 361.108 837.894 373.801 805.414 373.801ZM803.734 267.681C788.427 267.681 779.187 275.801 776.014 292.041H828.654C827.907 284.574 825.294 278.694 820.814 274.401C816.52 269.921 810.827 267.681 803.734 267.681ZM1096.68 288.121V371.001H1054.12V292.601C1054.12 284.948 1052.81 279.161 1050.2 275.241C1047.77 271.134 1043.67 269.081 1037.88 269.081C1032.28 269.081 1027.71 271.041 1024.16 274.961C1020.61 278.881 1018.84 284.761 1018.84 292.601V371.001H976.282V292.601C976.282 284.948 974.975 279.161 972.362 275.241C969.935 271.134 965.828 269.081 960.042 269.081C954.442 269.081 949.868 271.041 946.322 274.961C942.775 278.881 941.002 284.761 941.002 292.601V371.001H900.122V242.201H941.002V261.241C944.735 254.148 949.682 248.734 955.842 245.001C962.002 241.081 969.468 239.121 978.242 239.121C988.322 239.121 996.348 240.894 1002.32 244.441C1008.48 247.988 1012.77 253.308 1015.2 260.401C1019.87 253.681 1025.65 248.454 1032.56 244.721C1039.47 240.988 1047.31 239.121 1056.08 239.121C1071.01 239.121 1081.47 243.414 1087.44 252.001C1093.6 260.588 1096.68 272.628 1096.68 288.121ZM1195.61 373.801C1180.49 373.801 1167.42 371.094 1156.41 365.681C1145.58 360.081 1137.18 352.241 1131.21 342.161C1125.24 332.081 1122.25 320.228 1122.25 306.601C1122.25 285.694 1128.69 269.268 1141.57 257.321C1154.45 245.374 1172.18 239.401 1194.77 239.401C1216.98 239.401 1234.06 245.094 1246.01 256.481C1258.14 267.868 1264.21 283.921 1264.21 304.641C1264.21 306.694 1264.21 308.654 1264.21 310.521C1264.21 312.388 1264.12 314.068 1263.93 315.561H1165.65C1166.77 324.334 1169.85 331.148 1174.89 336.001C1179.93 340.854 1186.56 343.281 1194.77 343.281C1209.7 343.281 1220.34 337.681 1226.69 326.481L1264.77 335.721C1251.14 361.108 1228.09 373.801 1195.61 373.801ZM1193.93 267.681C1178.62 267.681 1169.38 275.801 1166.21 292.041H1218.85C1218.1 284.574 1215.49 278.694 1211.01 274.401C1206.72 269.921 1201.02 267.681 1193.93 267.681ZM1297.32 324.241C1307.21 332.454 1315.61 338.054 1322.52 341.041C1329.61 343.841 1335.4 345.241 1339.88 345.241C1348.28 345.241 1352.48 341.881 1352.48 335.161C1352.48 331.054 1350.52 327.788 1346.6 325.361C1342.68 322.748 1335.49 319.761 1325.04 316.401C1319.06 314.348 1313.28 311.734 1307.68 308.561C1302.08 305.388 1297.5 301.188 1293.96 295.961C1290.41 290.734 1288.64 284.014 1288.64 275.801C1288.64 264.041 1293.21 255.081 1302.36 248.921C1311.5 242.574 1322.98 239.401 1336.8 239.401C1347.81 239.401 1357.89 241.268 1367.04 245.001C1376.18 248.548 1384.49 253.028 1391.96 258.441L1376.84 286.161C1371.61 281.121 1365.45 276.921 1358.36 273.561C1351.45 270.201 1345.1 268.521 1339.32 268.521C1335.58 268.521 1332.69 269.268 1330.64 270.761C1328.77 272.254 1327.84 274.214 1327.84 276.641C1327.84 280.934 1330.36 284.108 1335.4 286.161C1340.62 288.214 1348 291.108 1357.52 294.841C1364.24 297.268 1370.4 300.068 1376 303.241C1381.6 306.414 1386.08 310.428 1389.44 315.281C1392.98 320.134 1394.76 326.574 1394.76 334.601C1394.76 348.228 1390.56 358.588 1382.16 365.681C1373.76 372.774 1361.81 376.321 1346.32 376.321C1332.32 376.321 1319.9 374.081 1309.08 369.601C1298.25 364.934 1288.45 359.148 1279.68 352.241L1297.32 324.241ZM1415.49 194.041C1415.49 187.321 1417.83 181.814 1422.49 177.521C1427.35 173.228 1433.23 171.081 1440.13 171.081C1447.04 171.081 1452.83 173.228 1457.49 177.521C1462.35 181.814 1464.77 187.321 1464.77 194.041C1464.77 200.761 1462.35 206.268 1457.49 210.561C1452.83 214.668 1447.04 216.721 1440.13 216.721C1433.23 216.721 1427.35 214.668 1422.49 210.561C1417.83 206.268 1415.49 200.761 1415.49 194.041ZM1419.41 242.201H1460.57V371.001H1419.41V242.201ZM1579.12 292.601C1579.12 284.948 1577.72 279.161 1574.92 275.241C1572.12 271.134 1567.26 269.081 1560.36 269.081C1553.64 269.081 1548.22 271.134 1544.12 275.241C1540.01 279.161 1537.96 284.948 1537.96 292.601V371.001H1495.4V242.201H1537.96V261.521C1541.69 254.428 1546.73 248.921 1553.08 245.001C1559.61 241.081 1567.64 239.121 1577.16 239.121C1593.21 239.121 1604.88 243.414 1612.16 252.001C1619.62 260.588 1623.36 272.628 1623.36 288.121V371.001H1579.12V292.601Z"
                                    fill="#000F24" />
                                <path
                                    d="M83.7428 175.027L164.708 174.595L149.135 148.364L239.841 148.05L198.807 78.2523L27.4322 79.1651L83.7428 175.027Z"
                                    fill="#000F24" />
                                <path d="M332.316 147.914L372.353 77.5L192.503 78.1959L233.743 148.111L332.316 147.914Z"
                                    fill="#000F24" />
                                <path d="M185 188L260 160V422L185 448V188Z" fill="#000F24" />
                            </svg>