<svg width="757" height="188" viewBox="0 0 757 188" fill="none" xmlns="http://www.w3.org/2000/svg">
<rect x="45" y="49" width="30" height="98" fill="#090f3f"/>
<circle cx="22.5" cy="71.5" r="22.5" fill="#090f3f"/>
<path d="M87.125 94C87.125 85.3333 89 77.625 92.75 70.875C96.5 64.0417 101.708 58.75 108.375 55C115.125 51.1667 122.75 49.25 131.25 49.25C141.667 49.25 150.583 52 158 57.5C165.417 63 170.375 70.5 172.875 80H149.375C147.625 76.3333 145.125 73.5417 141.875 71.625C138.708 69.7083 135.083 68.75 131 68.75C124.417 68.75 119.083 71.0417 115 75.625C110.917 80.2083 108.875 86.3333 108.875 94C108.875 101.667 110.917 107.792 115 112.375C119.083 116.958 124.417 119.25 131 119.25C135.083 119.25 138.708 118.292 141.875 116.375C145.125 114.458 147.625 111.667 149.375 108H172.875C170.375 117.5 165.417 125 158 130.5C150.583 135.917 141.667 138.625 131.25 138.625C122.75 138.625 115.125 136.75 108.375 133C101.708 129.167 96.5 123.875 92.75 117.125C89 110.375 87.125 102.667 87.125 94ZM217.715 139C210.882 139 204.715 137.542 199.215 134.625C193.798 131.708 189.507 127.542 186.34 122.125C183.257 116.708 181.715 110.375 181.715 103.125C181.715 95.9583 183.298 89.6667 186.465 84.25C189.632 78.75 193.965 74.5417 199.465 71.625C204.965 68.7083 211.132 67.25 217.965 67.25C224.798 67.25 230.965 68.7083 236.465 71.625C241.965 74.5417 246.298 78.75 249.465 84.25C252.632 89.6667 254.215 95.9583 254.215 103.125C254.215 110.292 252.59 116.625 249.34 122.125C246.173 127.542 241.798 131.708 236.215 134.625C230.715 137.542 224.548 139 217.715 139ZM217.715 120.5C221.798 120.5 225.257 119 228.09 116C231.007 113 232.465 108.708 232.465 103.125C232.465 97.5417 231.048 93.25 228.215 90.25C225.465 87.25 222.048 85.75 217.965 85.75C213.798 85.75 210.34 87.25 207.59 90.25C204.84 93.1667 203.465 97.4583 203.465 103.125C203.465 108.708 204.798 113 207.465 116C210.215 119 213.632 120.5 217.715 120.5ZM354.555 67.5C363.221 67.5 370.096 70.125 375.18 75.375C380.346 80.625 382.93 87.9167 382.93 97.25V138H361.68V100.125C361.68 95.625 360.471 92.1667 358.055 89.75C355.721 87.25 352.471 86 348.305 86C344.138 86 340.846 87.25 338.43 89.75C336.096 92.1667 334.93 95.625 334.93 100.125V138H313.68V100.125C313.68 95.625 312.471 92.1667 310.055 89.75C307.721 87.25 304.471 86 300.305 86C296.138 86 292.846 87.25 290.43 89.75C288.096 92.1667 286.93 95.625 286.93 100.125V138H265.555V68.25H286.93V77C289.096 74.0833 291.93 71.7917 295.43 70.125C298.93 68.375 302.888 67.5 307.305 67.5C312.555 67.5 317.221 68.625 321.305 70.875C325.471 73.125 328.721 76.3333 331.055 80.5C333.471 76.6667 336.763 73.5417 340.93 71.125C345.096 68.7083 349.638 67.5 354.555 67.5ZM419.254 78.125C421.337 74.875 424.212 72.25 427.879 70.25C431.546 68.25 435.837 67.25 440.754 67.25C446.504 67.25 451.712 68.7083 456.379 71.625C461.046 74.5417 464.712 78.7083 467.379 84.125C470.129 89.5417 471.504 95.8333 471.504 103C471.504 110.167 470.129 116.5 467.379 122C464.712 127.417 461.046 131.625 456.379 134.625C451.712 137.542 446.504 139 440.754 139C435.921 139 431.629 138 427.879 136C424.212 134 421.337 131.417 419.254 128.25V171.25H397.879V68.25H419.254V78.125ZM449.754 103C449.754 97.6667 448.254 93.5 445.254 90.5C442.337 87.4167 438.712 85.875 434.379 85.875C430.129 85.875 426.504 87.4167 423.504 90.5C420.587 93.5833 419.129 97.7917 419.129 103.125C419.129 108.458 420.587 112.667 423.504 115.75C426.504 118.833 430.129 120.375 434.379 120.375C438.629 120.375 442.254 118.833 445.254 115.75C448.254 112.583 449.754 108.333 449.754 103ZM478.468 103C478.468 95.8333 479.801 89.5417 482.468 84.125C485.218 78.7083 488.926 74.5417 493.593 71.625C498.259 68.7083 503.468 67.25 509.218 67.25C514.134 67.25 518.426 68.25 522.093 70.25C525.843 72.25 528.718 74.875 530.718 78.125V68.25H552.093V138H530.718V128.125C528.634 131.375 525.718 134 521.968 136C518.301 138 514.009 139 509.093 139C503.426 139 498.259 137.542 493.593 134.625C488.926 131.625 485.218 127.417 482.468 122C479.801 116.5 478.468 110.167 478.468 103ZM530.718 103.125C530.718 97.7917 529.218 93.5833 526.218 90.5C523.301 87.4167 519.718 85.875 515.468 85.875C511.218 85.875 507.593 87.4167 504.593 90.5C501.676 93.5 500.218 97.6667 500.218 103C500.218 108.333 501.676 112.583 504.593 115.75C507.593 118.833 511.218 120.375 515.468 120.375C519.718 120.375 523.301 118.833 526.218 115.75C529.218 112.667 530.718 108.458 530.718 103.125ZM610.057 67.5C618.223 67.5 624.723 70.1667 629.557 75.5C634.473 80.75 636.932 88 636.932 97.25V138H615.682V100.125C615.682 95.4583 614.473 91.8333 612.057 89.25C609.64 86.6667 606.39 85.375 602.307 85.375C598.223 85.375 594.973 86.6667 592.557 89.25C590.14 91.8333 588.932 95.4583 588.932 100.125V138H567.557V68.25H588.932V77.5C591.098 74.4167 594.015 72 597.682 70.25C601.348 68.4167 605.473 67.5 610.057 67.5ZM723.035 68.25L679.285 171.125H656.285L672.285 135.625L643.91 68.25H667.785L683.91 111.875L699.91 68.25H723.035Z" fill="#090f3f"/>
</svg>
