<svg width="757" height="188" viewBox="0 0 757 188" fill="none" xmlns="http://www.w3.org/2000/svg">
<path d="M149.698 86.3979C149.006 95.9601 145.466 103.488 139.078 108.981C132.73 114.474 124.348 117.221 113.931 117.221C102.538 117.221 93.5658 113.396 87.0146 105.746C80.5042 98.0557 77.249 87.5169 77.249 74.1299V68.6978C77.249 60.1528 78.7546 52.6252 81.7656 46.1147C84.7767 39.6043 89.0695 34.6198 94.644 31.1611C100.259 27.6618 106.77 25.9121 114.175 25.9121C124.429 25.9121 132.689 28.6587 138.956 34.1519C145.222 39.645 148.843 47.3558 149.82 57.2842H131.509C131.062 51.5469 129.454 47.3965 126.688 44.833C123.961 42.2288 119.791 40.9268 114.175 40.9268C108.072 40.9268 103.494 43.124 100.442 47.5186C97.4313 51.8724 95.8851 58.6473 95.8037 67.8433V74.5571C95.8037 84.16 97.2482 91.179 100.137 95.6143C103.067 100.049 107.665 102.267 113.931 102.267C119.587 102.267 123.799 100.985 126.565 98.4219C129.373 95.8177 130.98 91.8097 131.387 86.3979H149.698ZM157.815 82.3696C157.815 75.8185 159.077 69.9795 161.6 64.8525C164.122 59.7256 167.744 55.7583 172.464 52.9507C177.225 50.1431 182.738 48.7393 189.004 48.7393C197.916 48.7393 205.179 51.4655 210.794 56.918C216.45 62.3704 219.603 69.776 220.254 79.1348L220.376 83.6514C220.376 93.7832 217.549 101.921 211.893 108.065C206.237 114.169 198.648 117.221 189.126 117.221C179.605 117.221 171.996 114.169 166.299 108.065C160.643 101.962 157.815 93.6611 157.815 83.1631V82.3696ZM175.455 83.6514C175.455 89.9176 176.635 94.7191 178.995 98.0557C181.355 101.352 184.732 103 189.126 103C193.399 103 196.736 101.372 199.136 98.1167C201.537 94.8208 202.737 89.5718 202.737 82.3696C202.737 76.2254 201.537 71.4647 199.136 68.0874C196.736 64.7101 193.358 63.0215 189.004 63.0215C184.691 63.0215 181.355 64.7101 178.995 68.0874C176.635 71.424 175.455 76.612 175.455 83.6514ZM247.781 49.96L248.331 57.3452C253.01 51.6079 259.337 48.7393 267.312 48.7393C275.817 48.7393 281.656 52.0962 284.83 58.8101C289.468 52.0962 296.08 48.7393 304.666 48.7393C311.827 48.7393 317.158 50.8348 320.657 55.0259C324.157 59.1763 325.906 65.4425 325.906 73.8247V116H308.206V73.8857C308.206 70.1423 307.474 67.416 306.009 65.707C304.544 63.9574 301.96 63.0825 298.257 63.0825C292.968 63.0825 289.306 65.6053 287.271 70.6509L287.332 116H269.693V73.9468C269.693 70.1219 268.94 67.355 267.435 65.646C265.929 63.937 263.366 63.0825 259.744 63.0825C254.739 63.0825 251.118 65.1577 248.88 69.3081V116H231.241V49.96H247.781ZM398.965 83.5903C398.965 93.7629 396.646 101.921 392.007 108.065C387.409 114.169 381.184 117.221 373.331 117.221C366.657 117.221 361.266 114.901 357.156 110.263V141.391H339.517V49.96H355.875L356.485 56.4297C360.757 51.3027 366.332 48.7393 373.208 48.7393C381.347 48.7393 387.674 51.7503 392.19 57.7725C396.707 63.7946 398.965 72.0954 398.965 82.6748V83.5903ZM381.326 82.3086C381.326 76.1644 380.228 71.424 378.03 68.0874C375.874 64.7508 372.72 63.0825 368.57 63.0825C363.036 63.0825 359.231 65.1984 357.156 69.4302V96.4688C359.313 100.823 363.158 103 368.692 103C377.115 103 381.326 96.1025 381.326 82.3086ZM448.221 116C447.407 114.413 446.817 112.44 446.451 110.08C442.178 114.84 436.624 117.221 429.788 117.221C423.318 117.221 417.947 115.349 413.675 111.605C409.443 107.862 407.327 103.142 407.327 97.4453C407.327 90.4466 409.911 85.0755 415.079 81.332C420.287 77.5885 427.794 75.6965 437.601 75.6558H445.718V71.8716C445.718 68.8198 444.925 66.3784 443.338 64.5474C441.792 62.7163 439.33 61.8008 435.953 61.8008C432.982 61.8008 430.643 62.5129 428.934 63.937C427.265 65.3612 426.431 67.3143 426.431 69.7964H408.792C408.792 65.9715 409.972 62.4315 412.332 59.1763C414.692 55.9211 418.029 53.3779 422.342 51.5469C426.655 49.6751 431.497 48.7393 436.868 48.7393C445.006 48.7393 451.456 50.7941 456.216 54.9038C461.018 58.9728 463.418 64.7101 463.418 72.1157V100.741C463.459 107.007 464.334 111.748 466.043 114.962V116H448.221ZM433.633 103.732C436.237 103.732 438.638 103.162 440.835 102.023C443.033 100.843 444.66 99.2764 445.718 97.3232V85.9707H439.126C430.297 85.9707 425.597 89.0225 425.027 95.126L424.966 96.1636C424.966 98.3608 425.739 100.172 427.286 101.596C428.832 103.02 430.948 103.732 433.633 103.732ZM493.204 49.96L493.753 57.5894C498.473 51.6893 504.8 48.7393 512.735 48.7393C519.734 48.7393 524.942 50.7941 528.36 54.9038C531.778 59.0135 533.528 65.1577 533.609 73.3364V116H515.97V73.7637C515.97 70.0202 515.156 67.3143 513.528 65.646C511.901 63.937 509.195 63.0825 505.411 63.0825C500.446 63.0825 496.723 65.1984 494.241 69.4302V116H476.602V49.96H493.204ZM571.695 91.0366L583.902 49.96H602.823L576.272 126.254L574.808 129.733C570.861 138.359 564.35 142.672 555.276 142.672C552.713 142.672 550.109 142.286 547.464 141.513V128.146L550.149 128.207C553.486 128.207 555.968 127.698 557.596 126.681C559.264 125.664 560.566 123.975 561.502 121.615L563.577 116.183L540.445 49.96H559.427L571.695 91.0366Z" fill="#090f3f"/>
<circle cx="30" cy="116" r="30" fill="#090f3f"/>
<rect y="13" width="60" height="60" rx="15" fill="#090f3f"/>
</svg>
