<svg width="762" height="188" viewBox="0 0 762 188" fill="none" xmlns="http://www.w3.org/2000/svg">
<path d="M125.125 94C125.125 85.3333 127 77.625 130.75 70.875C134.5 64.0417 139.708 58.75 146.375 55C153.125 51.1667 160.75 49.25 169.25 49.25C179.667 49.25 188.583 52 196 57.5C203.417 63 208.375 70.5 210.875 80H187.375C185.625 76.3333 183.125 73.5417 179.875 71.625C176.708 69.7083 173.083 68.75 169 68.75C162.417 68.75 157.083 71.0417 153 75.625C148.917 80.2083 146.875 86.3333 146.875 94C146.875 101.667 148.917 107.792 153 112.375C157.083 116.958 162.417 119.25 169 119.25C173.083 119.25 176.708 118.292 179.875 116.375C183.125 114.458 185.625 111.667 187.375 108H210.875C208.375 117.5 203.417 125 196 130.5C188.583 135.917 179.667 138.625 169.25 138.625C160.75 138.625 153.125 136.75 146.375 133C139.708 129.167 134.5 123.875 130.75 117.125C127 110.375 125.125 102.667 125.125 94ZM255.715 139C248.882 139 242.715 137.542 237.215 134.625C231.798 131.708 227.507 127.542 224.34 122.125C221.257 116.708 219.715 110.375 219.715 103.125C219.715 95.9583 221.298 89.6667 224.465 84.25C227.632 78.75 231.965 74.5417 237.465 71.625C242.965 68.7083 249.132 67.25 255.965 67.25C262.798 67.25 268.965 68.7083 274.465 71.625C279.965 74.5417 284.298 78.75 287.465 84.25C290.632 89.6667 292.215 95.9583 292.215 103.125C292.215 110.292 290.59 116.625 287.34 122.125C284.173 127.542 279.798 131.708 274.215 134.625C268.715 137.542 262.548 139 255.715 139ZM255.715 120.5C259.798 120.5 263.257 119 266.09 116C269.007 113 270.465 108.708 270.465 103.125C270.465 97.5417 269.048 93.25 266.215 90.25C263.465 87.25 260.048 85.75 255.965 85.75C251.798 85.75 248.34 87.25 245.59 90.25C242.84 93.1667 241.465 97.4583 241.465 103.125C241.465 108.708 242.798 113 245.465 116C248.215 119 251.632 120.5 255.715 120.5ZM392.555 67.5C401.221 67.5 408.096 70.125 413.18 75.375C418.346 80.625 420.93 87.9167 420.93 97.25V138H399.68V100.125C399.68 95.625 398.471 92.1667 396.055 89.75C393.721 87.25 390.471 86 386.305 86C382.138 86 378.846 87.25 376.43 89.75C374.096 92.1667 372.93 95.625 372.93 100.125V138H351.68V100.125C351.68 95.625 350.471 92.1667 348.055 89.75C345.721 87.25 342.471 86 338.305 86C334.138 86 330.846 87.25 328.43 89.75C326.096 92.1667 324.93 95.625 324.93 100.125V138H303.555V68.25H324.93V77C327.096 74.0833 329.93 71.7917 333.43 70.125C336.93 68.375 340.888 67.5 345.305 67.5C350.555 67.5 355.221 68.625 359.305 70.875C363.471 73.125 366.721 76.3333 369.055 80.5C371.471 76.6667 374.763 73.5417 378.93 71.125C383.096 68.7083 387.638 67.5 392.555 67.5ZM457.254 78.125C459.337 74.875 462.212 72.25 465.879 70.25C469.546 68.25 473.837 67.25 478.754 67.25C484.504 67.25 489.712 68.7083 494.379 71.625C499.046 74.5417 502.712 78.7083 505.379 84.125C508.129 89.5417 509.504 95.8333 509.504 103C509.504 110.167 508.129 116.5 505.379 122C502.712 127.417 499.046 131.625 494.379 134.625C489.712 137.542 484.504 139 478.754 139C473.921 139 469.629 138 465.879 136C462.212 134 459.337 131.417 457.254 128.25V171.25H435.879V68.25H457.254V78.125ZM487.754 103C487.754 97.6667 486.254 93.5 483.254 90.5C480.337 87.4167 476.712 85.875 472.379 85.875C468.129 85.875 464.504 87.4167 461.504 90.5C458.587 93.5833 457.129 97.7917 457.129 103.125C457.129 108.458 458.587 112.667 461.504 115.75C464.504 118.833 468.129 120.375 472.379 120.375C476.629 120.375 480.254 118.833 483.254 115.75C486.254 112.583 487.754 108.333 487.754 103ZM516.468 103C516.468 95.8333 517.801 89.5417 520.468 84.125C523.218 78.7083 526.926 74.5417 531.593 71.625C536.259 68.7083 541.468 67.25 547.218 67.25C552.134 67.25 556.426 68.25 560.093 70.25C563.843 72.25 566.718 74.875 568.718 78.125V68.25H590.093V138H568.718V128.125C566.634 131.375 563.718 134 559.968 136C556.301 138 552.009 139 547.093 139C541.426 139 536.259 137.542 531.593 134.625C526.926 131.625 523.218 127.417 520.468 122C517.801 116.5 516.468 110.167 516.468 103ZM568.718 103.125C568.718 97.7917 567.218 93.5833 564.218 90.5C561.301 87.4167 557.718 85.875 553.468 85.875C549.218 85.875 545.593 87.4167 542.593 90.5C539.676 93.5 538.218 97.6667 538.218 103C538.218 108.333 539.676 112.583 542.593 115.75C545.593 118.833 549.218 120.375 553.468 120.375C557.718 120.375 561.301 118.833 564.218 115.75C567.218 112.667 568.718 108.458 568.718 103.125ZM648.057 67.5C656.223 67.5 662.723 70.1667 667.557 75.5C672.473 80.75 674.932 88 674.932 97.25V138H653.682V100.125C653.682 95.4583 652.473 91.8333 650.057 89.25C647.64 86.6667 644.39 85.375 640.307 85.375C636.223 85.375 632.973 86.6667 630.557 89.25C628.14 91.8333 626.932 95.4583 626.932 100.125V138H605.557V68.25H626.932V77.5C629.098 74.4167 632.015 72 635.682 70.25C639.348 68.4167 643.473 67.5 648.057 67.5ZM761.035 68.25L717.285 171.125H694.285L710.285 135.625L681.91 68.25H705.785L721.91 111.875L737.91 68.25H761.035Z" fill="#090f3f"/>
<rect y="93.5685" width="80" height="80" rx="15" transform="rotate(-45 0 93.5685)" fill="#090f3f"/>
</svg>
