<svg width="757" height="188" viewBox="0 0 757 188" fill="none" xmlns="http://www.w3.org/2000/svg">
<path d="M64.125 94C64.125 85.3333 66 77.625 69.75 70.875C73.5 64.0417 78.7083 58.75 85.375 55C92.125 51.1667 99.75 49.25 108.25 49.25C118.667 49.25 127.583 52 135 57.5C142.417 63 147.375 70.5 149.875 80H126.375C124.625 76.3333 122.125 73.5417 118.875 71.625C115.708 69.7083 112.083 68.75 108 68.75C101.417 68.75 96.0833 71.0417 92 75.625C87.9167 80.2083 85.875 86.3333 85.875 94C85.875 101.667 87.9167 107.792 92 112.375C96.0833 116.958 101.417 119.25 108 119.25C112.083 119.25 115.708 118.292 118.875 116.375C122.125 114.458 124.625 111.667 126.375 108H149.875C147.375 117.5 142.417 125 135 130.5C127.583 135.917 118.667 138.625 108.25 138.625C99.75 138.625 92.125 136.75 85.375 133C78.7083 129.167 73.5 123.875 69.75 117.125C66 110.375 64.125 102.667 64.125 94ZM194.715 139C187.882 139 181.715 137.542 176.215 134.625C170.798 131.708 166.507 127.542 163.34 122.125C160.257 116.708 158.715 110.375 158.715 103.125C158.715 95.9583 160.298 89.6667 163.465 84.25C166.632 78.75 170.965 74.5417 176.465 71.625C181.965 68.7083 188.132 67.25 194.965 67.25C201.798 67.25 207.965 68.7083 213.465 71.625C218.965 74.5417 223.298 78.75 226.465 84.25C229.632 89.6667 231.215 95.9583 231.215 103.125C231.215 110.292 229.59 116.625 226.34 122.125C223.173 127.542 218.798 131.708 213.215 134.625C207.715 137.542 201.548 139 194.715 139ZM194.715 120.5C198.798 120.5 202.257 119 205.09 116C208.007 113 209.465 108.708 209.465 103.125C209.465 97.5417 208.048 93.25 205.215 90.25C202.465 87.25 199.048 85.75 194.965 85.75C190.798 85.75 187.34 87.25 184.59 90.25C181.84 93.1667 180.465 97.4583 180.465 103.125C180.465 108.708 181.798 113 184.465 116C187.215 119 190.632 120.5 194.715 120.5ZM331.555 67.5C340.221 67.5 347.096 70.125 352.18 75.375C357.346 80.625 359.93 87.9167 359.93 97.25V138H338.68V100.125C338.68 95.625 337.471 92.1667 335.055 89.75C332.721 87.25 329.471 86 325.305 86C321.138 86 317.846 87.25 315.43 89.75C313.096 92.1667 311.93 95.625 311.93 100.125V138H290.68V100.125C290.68 95.625 289.471 92.1667 287.055 89.75C284.721 87.25 281.471 86 277.305 86C273.138 86 269.846 87.25 267.43 89.75C265.096 92.1667 263.93 95.625 263.93 100.125V138H242.555V68.25H263.93V77C266.096 74.0833 268.93 71.7917 272.43 70.125C275.93 68.375 279.888 67.5 284.305 67.5C289.555 67.5 294.221 68.625 298.305 70.875C302.471 73.125 305.721 76.3333 308.055 80.5C310.471 76.6667 313.763 73.5417 317.93 71.125C322.096 68.7083 326.638 67.5 331.555 67.5ZM396.254 78.125C398.337 74.875 401.212 72.25 404.879 70.25C408.546 68.25 412.837 67.25 417.754 67.25C423.504 67.25 428.712 68.7083 433.379 71.625C438.046 74.5417 441.712 78.7083 444.379 84.125C447.129 89.5417 448.504 95.8333 448.504 103C448.504 110.167 447.129 116.5 444.379 122C441.712 127.417 438.046 131.625 433.379 134.625C428.712 137.542 423.504 139 417.754 139C412.921 139 408.629 138 404.879 136C401.212 134 398.337 131.417 396.254 128.25V171.25H374.879V68.25H396.254V78.125ZM426.754 103C426.754 97.6667 425.254 93.5 422.254 90.5C419.337 87.4167 415.712 85.875 411.379 85.875C407.129 85.875 403.504 87.4167 400.504 90.5C397.587 93.5833 396.129 97.7917 396.129 103.125C396.129 108.458 397.587 112.667 400.504 115.75C403.504 118.833 407.129 120.375 411.379 120.375C415.629 120.375 419.254 118.833 422.254 115.75C425.254 112.583 426.754 108.333 426.754 103ZM455.468 103C455.468 95.8333 456.801 89.5417 459.468 84.125C462.218 78.7083 465.926 74.5417 470.593 71.625C475.259 68.7083 480.468 67.25 486.218 67.25C491.134 67.25 495.426 68.25 499.093 70.25C502.843 72.25 505.718 74.875 507.718 78.125V68.25H529.093V138H507.718V128.125C505.634 131.375 502.718 134 498.968 136C495.301 138 491.009 139 486.093 139C480.426 139 475.259 137.542 470.593 134.625C465.926 131.625 462.218 127.417 459.468 122C456.801 116.5 455.468 110.167 455.468 103ZM507.718 103.125C507.718 97.7917 506.218 93.5833 503.218 90.5C500.301 87.4167 496.718 85.875 492.468 85.875C488.218 85.875 484.593 87.4167 481.593 90.5C478.676 93.5 477.218 97.6667 477.218 103C477.218 108.333 478.676 112.583 481.593 115.75C484.593 118.833 488.218 120.375 492.468 120.375C496.718 120.375 500.301 118.833 503.218 115.75C506.218 112.667 507.718 108.458 507.718 103.125ZM587.057 67.5C595.223 67.5 601.723 70.1667 606.557 75.5C611.473 80.75 613.932 88 613.932 97.25V138H592.682V100.125C592.682 95.4583 591.473 91.8333 589.057 89.25C586.64 86.6667 583.39 85.375 579.307 85.375C575.223 85.375 571.973 86.6667 569.557 89.25C567.14 91.8333 565.932 95.4583 565.932 100.125V138H544.557V68.25H565.932V77.5C568.098 74.4167 571.015 72 574.682 70.25C578.348 68.4167 582.473 67.5 587.057 67.5ZM700.035 68.25L656.285 171.125H633.285L649.285 135.625L620.91 68.25H644.785L660.91 111.875L676.91 68.25H700.035Z" fill="#090f3f"/>
<circle cx="45" cy="61" r="15" fill="#090f3f"/>
<path d="M0 76H30V108C30 124.569 16.5685 138 0 138V138V76Z" fill="#090f3f"/>
</svg>
