<svg width="757" height="188" viewBox="0 0 757 188" fill="none" xmlns="http://www.w3.org/2000/svg">
<rect x="61" y="19" width="30" height="98" fill="#090f3f"/>
<circle cx="22.5" cy="94.5" r="22.5" fill="#090f3f"/>
<circle cx="129.5" cy="41.5" r="22.5" fill="#090f3f"/>
<circle cx="129.5" cy="95.5" r="22.5" fill="#090f3f"/>
<path d="M256.698 86.3979C256.006 95.9601 252.466 103.488 246.078 108.981C239.73 114.474 231.348 117.221 220.931 117.221C209.538 117.221 200.566 113.396 194.015 105.746C187.504 98.0557 184.249 87.5169 184.249 74.1299V68.6978C184.249 60.1528 185.755 52.6252 188.766 46.1147C191.777 39.6043 196.069 34.6198 201.644 31.1611C207.259 27.6618 213.77 25.9121 221.175 25.9121C231.429 25.9121 239.689 28.6587 245.956 34.1519C252.222 39.645 255.843 47.3558 256.82 57.2842H238.509C238.062 51.5469 236.454 47.3965 233.688 44.833C230.961 42.2288 226.791 40.9268 221.175 40.9268C215.072 40.9268 210.494 43.124 207.442 47.5186C204.431 51.8724 202.885 58.6473 202.804 67.8433V74.5571C202.804 84.16 204.248 91.179 207.137 95.6143C210.067 100.049 214.665 102.267 220.931 102.267C226.587 102.267 230.799 100.985 233.565 98.4219C236.373 95.8177 237.98 91.8097 238.387 86.3979H256.698ZM264.815 82.3696C264.815 75.8185 266.077 69.9795 268.6 64.8525C271.122 59.7256 274.744 55.7583 279.464 52.9507C284.225 50.1431 289.738 48.7393 296.004 48.7393C304.916 48.7393 312.179 51.4655 317.794 56.918C323.45 62.3704 326.603 69.776 327.254 79.1348L327.376 83.6514C327.376 93.7832 324.549 101.921 318.893 108.065C313.237 114.169 305.648 117.221 296.126 117.221C286.605 117.221 278.996 114.169 273.299 108.065C267.643 101.962 264.815 93.6611 264.815 83.1631V82.3696ZM282.455 83.6514C282.455 89.9176 283.635 94.7191 285.995 98.0557C288.355 101.352 291.732 103 296.126 103C300.399 103 303.736 101.372 306.136 98.1167C308.537 94.8208 309.737 89.5718 309.737 82.3696C309.737 76.2254 308.537 71.4647 306.136 68.0874C303.736 64.7101 300.358 63.0215 296.004 63.0215C291.691 63.0215 288.355 64.7101 285.995 68.0874C283.635 71.424 282.455 76.612 282.455 83.6514ZM354.781 49.96L355.331 57.3452C360.01 51.6079 366.337 48.7393 374.312 48.7393C382.817 48.7393 388.656 52.0962 391.83 58.8101C396.468 52.0962 403.08 48.7393 411.666 48.7393C418.827 48.7393 424.158 50.8348 427.657 55.0259C431.157 59.1763 432.906 65.4425 432.906 73.8247V116H415.206V73.8857C415.206 70.1423 414.474 67.416 413.009 65.707C411.544 63.9574 408.96 63.0825 405.257 63.0825C399.968 63.0825 396.306 65.6053 394.271 70.6509L394.332 116H376.693V73.9468C376.693 70.1219 375.94 67.355 374.435 65.646C372.929 63.937 370.366 63.0825 366.744 63.0825C361.739 63.0825 358.118 65.1577 355.88 69.3081V116H338.241V49.96H354.781ZM505.965 83.5903C505.965 93.7629 503.646 101.921 499.007 108.065C494.409 114.169 488.184 117.221 480.331 117.221C473.657 117.221 468.266 114.901 464.156 110.263V141.391H446.517V49.96H462.875L463.485 56.4297C467.757 51.3027 473.332 48.7393 480.208 48.7393C488.347 48.7393 494.674 51.7503 499.19 57.7725C503.707 63.7946 505.965 72.0954 505.965 82.6748V83.5903ZM488.326 82.3086C488.326 76.1644 487.228 71.424 485.03 68.0874C482.874 64.7508 479.72 63.0825 475.57 63.0825C470.036 63.0825 466.231 65.1984 464.156 69.4302V96.4688C466.313 100.823 470.158 103 475.692 103C484.115 103 488.326 96.1025 488.326 82.3086ZM555.221 116C554.407 114.413 553.817 112.44 553.451 110.08C549.178 114.84 543.624 117.221 536.788 117.221C530.318 117.221 524.947 115.349 520.675 111.605C516.443 107.862 514.327 103.142 514.327 97.4453C514.327 90.4466 516.911 85.0755 522.079 81.332C527.287 77.5885 534.794 75.6965 544.601 75.6558H552.718V71.8716C552.718 68.8198 551.925 66.3784 550.338 64.5474C548.792 62.7163 546.33 61.8008 542.953 61.8008C539.982 61.8008 537.643 62.5129 535.934 63.937C534.265 65.3612 533.431 67.3143 533.431 69.7964H515.792C515.792 65.9715 516.972 62.4315 519.332 59.1763C521.692 55.9211 525.029 53.3779 529.342 51.5469C533.655 49.6751 538.497 48.7393 543.868 48.7393C552.006 48.7393 558.456 50.7941 563.216 54.9038C568.018 58.9728 570.418 64.7101 570.418 72.1157V100.741C570.459 107.007 571.334 111.748 573.043 114.962V116H555.221ZM540.633 103.732C543.237 103.732 545.638 103.162 547.835 102.023C550.033 100.843 551.66 99.2764 552.718 97.3232V85.9707H546.126C537.297 85.9707 532.597 89.0225 532.027 95.126L531.966 96.1636C531.966 98.3608 532.739 100.172 534.286 101.596C535.832 103.02 537.948 103.732 540.633 103.732ZM600.204 49.96L600.753 57.5894C605.473 51.6893 611.8 48.7393 619.735 48.7393C626.734 48.7393 631.942 50.7941 635.36 54.9038C638.778 59.0135 640.528 65.1577 640.609 73.3364V116H622.97V73.7637C622.97 70.0202 622.156 67.3143 620.528 65.646C618.901 63.937 616.195 63.0825 612.411 63.0825C607.446 63.0825 603.723 65.1984 601.241 69.4302V116H583.602V49.96H600.204ZM678.695 91.0366L690.902 49.96H709.823L683.272 126.254L681.808 129.733C677.861 138.359 671.35 142.672 662.276 142.672C659.713 142.672 657.109 142.286 654.464 141.513V128.146L657.149 128.207C660.486 128.207 662.968 127.698 664.596 126.681C666.264 125.664 667.566 123.975 668.502 121.615L670.577 116.183L647.445 49.96H666.427L678.695 91.0366Z" fill="#090f3f"/>
</svg>
