<svg width="757" height="188" viewBox="0 0 757 188" fill="none" xmlns="http://www.w3.org/2000/svg">
<rect y="138" width="30" height="98" transform="rotate(-90 0 138)" fill="#ccd8e7"/>
<rect x="58" y="95" width="40" height="40" transform="rotate(-90 58 95)" fill="#ccd8e7"/>
<circle cx="20" cy="74" r="20" fill="#ccd8e7"/>
<path d="M120.125 94C120.125 85.3333 122 77.625 125.75 70.875C129.5 64.0417 134.708 58.75 141.375 55C148.125 51.1667 155.75 49.25 164.25 49.25C174.667 49.25 183.583 52 191 57.5C198.417 63 203.375 70.5 205.875 80H182.375C180.625 76.3333 178.125 73.5417 174.875 71.625C171.708 69.7083 168.083 68.75 164 68.75C157.417 68.75 152.083 71.0417 148 75.625C143.917 80.2083 141.875 86.3333 141.875 94C141.875 101.667 143.917 107.792 148 112.375C152.083 116.958 157.417 119.25 164 119.25C168.083 119.25 171.708 118.292 174.875 116.375C178.125 114.458 180.625 111.667 182.375 108H205.875C203.375 117.5 198.417 125 191 130.5C183.583 135.917 174.667 138.625 164.25 138.625C155.75 138.625 148.125 136.75 141.375 133C134.708 129.167 129.5 123.875 125.75 117.125C122 110.375 120.125 102.667 120.125 94ZM250.715 139C243.882 139 237.715 137.542 232.215 134.625C226.798 131.708 222.507 127.542 219.34 122.125C216.257 116.708 214.715 110.375 214.715 103.125C214.715 95.9583 216.298 89.6667 219.465 84.25C222.632 78.75 226.965 74.5417 232.465 71.625C237.965 68.7083 244.132 67.25 250.965 67.25C257.798 67.25 263.965 68.7083 269.465 71.625C274.965 74.5417 279.298 78.75 282.465 84.25C285.632 89.6667 287.215 95.9583 287.215 103.125C287.215 110.292 285.59 116.625 282.34 122.125C279.173 127.542 274.798 131.708 269.215 134.625C263.715 137.542 257.548 139 250.715 139ZM250.715 120.5C254.798 120.5 258.257 119 261.09 116C264.007 113 265.465 108.708 265.465 103.125C265.465 97.5417 264.048 93.25 261.215 90.25C258.465 87.25 255.048 85.75 250.965 85.75C246.798 85.75 243.34 87.25 240.59 90.25C237.84 93.1667 236.465 97.4583 236.465 103.125C236.465 108.708 237.798 113 240.465 116C243.215 119 246.632 120.5 250.715 120.5ZM387.555 67.5C396.221 67.5 403.096 70.125 408.18 75.375C413.346 80.625 415.93 87.9167 415.93 97.25V138H394.68V100.125C394.68 95.625 393.471 92.1667 391.055 89.75C388.721 87.25 385.471 86 381.305 86C377.138 86 373.846 87.25 371.43 89.75C369.096 92.1667 367.93 95.625 367.93 100.125V138H346.68V100.125C346.68 95.625 345.471 92.1667 343.055 89.75C340.721 87.25 337.471 86 333.305 86C329.138 86 325.846 87.25 323.43 89.75C321.096 92.1667 319.93 95.625 319.93 100.125V138H298.555V68.25H319.93V77C322.096 74.0833 324.93 71.7917 328.43 70.125C331.93 68.375 335.888 67.5 340.305 67.5C345.555 67.5 350.221 68.625 354.305 70.875C358.471 73.125 361.721 76.3333 364.055 80.5C366.471 76.6667 369.763 73.5417 373.93 71.125C378.096 68.7083 382.638 67.5 387.555 67.5ZM452.254 78.125C454.337 74.875 457.212 72.25 460.879 70.25C464.546 68.25 468.837 67.25 473.754 67.25C479.504 67.25 484.712 68.7083 489.379 71.625C494.046 74.5417 497.712 78.7083 500.379 84.125C503.129 89.5417 504.504 95.8333 504.504 103C504.504 110.167 503.129 116.5 500.379 122C497.712 127.417 494.046 131.625 489.379 134.625C484.712 137.542 479.504 139 473.754 139C468.921 139 464.629 138 460.879 136C457.212 134 454.337 131.417 452.254 128.25V171.25H430.879V68.25H452.254V78.125ZM482.754 103C482.754 97.6667 481.254 93.5 478.254 90.5C475.337 87.4167 471.712 85.875 467.379 85.875C463.129 85.875 459.504 87.4167 456.504 90.5C453.587 93.5833 452.129 97.7917 452.129 103.125C452.129 108.458 453.587 112.667 456.504 115.75C459.504 118.833 463.129 120.375 467.379 120.375C471.629 120.375 475.254 118.833 478.254 115.75C481.254 112.583 482.754 108.333 482.754 103ZM511.468 103C511.468 95.8333 512.801 89.5417 515.468 84.125C518.218 78.7083 521.926 74.5417 526.593 71.625C531.259 68.7083 536.468 67.25 542.218 67.25C547.134 67.25 551.426 68.25 555.093 70.25C558.843 72.25 561.718 74.875 563.718 78.125V68.25H585.093V138H563.718V128.125C561.634 131.375 558.718 134 554.968 136C551.301 138 547.009 139 542.093 139C536.426 139 531.259 137.542 526.593 134.625C521.926 131.625 518.218 127.417 515.468 122C512.801 116.5 511.468 110.167 511.468 103ZM563.718 103.125C563.718 97.7917 562.218 93.5833 559.218 90.5C556.301 87.4167 552.718 85.875 548.468 85.875C544.218 85.875 540.593 87.4167 537.593 90.5C534.676 93.5 533.218 97.6667 533.218 103C533.218 108.333 534.676 112.583 537.593 115.75C540.593 118.833 544.218 120.375 548.468 120.375C552.718 120.375 556.301 118.833 559.218 115.75C562.218 112.667 563.718 108.458 563.718 103.125ZM643.057 67.5C651.223 67.5 657.723 70.1667 662.557 75.5C667.473 80.75 669.932 88 669.932 97.25V138H648.682V100.125C648.682 95.4583 647.473 91.8333 645.057 89.25C642.64 86.6667 639.39 85.375 635.307 85.375C631.223 85.375 627.973 86.6667 625.557 89.25C623.14 91.8333 621.932 95.4583 621.932 100.125V138H600.557V68.25H621.932V77.5C624.098 74.4167 627.015 72 630.682 70.25C634.348 68.4167 638.473 67.5 643.057 67.5ZM756.035 68.25L712.285 171.125H689.285L705.285 135.625L676.91 68.25H700.785L716.91 111.875L732.91 68.25H756.035Z" fill="#ccd8e7"/>
</svg>
